<svg width="48" height="48" viewBox="0 0 48 48" fill="none" xmlns="http://www.w3.org/2000/svg">
<g clip-path="url(#clip0_170_999)">
<path d="M17.6001 30.895L20.0382 17.1807H23.8477L21.4858 30.895H17.6001Z" fill="#3C58BF"/>
<path d="M17.6001 30.895L20.7239 17.1807H23.8477L21.4858 30.895H17.6001Z" fill="#293688"/>
<path d="M35.2763 17.3332C34.5144 17.0284 33.2953 16.7236 31.7715 16.7236C27.962 16.7236 25.2191 18.6284 25.2191 21.3712C25.2191 23.4284 27.1239 24.495 28.6477 25.1808C30.1715 25.8665 30.6287 26.3236 30.6287 26.9331C30.6287 27.8474 29.4096 28.3046 28.3429 28.3046C26.8191 28.3046 25.981 28.076 24.6858 27.5427L24.1525 27.3141L23.6191 30.4379C24.5334 30.8188 26.2096 31.1998 27.962 31.1998C32.0001 31.1998 34.6667 29.295 34.6667 26.3998C34.6667 24.7998 33.6763 23.5808 31.3906 22.5903C30.0191 21.9046 29.181 21.5236 29.181 20.8379C29.181 20.2284 29.8668 19.6189 31.3906 19.6189C32.6858 19.6189 33.6001 19.8474 34.2858 20.1522L34.6667 20.3046L35.2763 17.3332Z" fill="#3C58BF"/>
<path d="M35.2763 17.3332C34.5144 17.0284 33.2953 16.7236 31.7715 16.7236C27.962 16.7236 25.9049 18.6284 25.9049 21.3712C25.9049 23.4284 27.1239 24.495 28.6477 25.1808C30.1715 25.8665 30.6287 26.3236 30.6287 26.9331C30.6287 27.8474 29.4096 28.3046 28.3429 28.3046C26.8191 28.3046 25.981 28.076 24.6858 27.5427L24.1525 27.3141L23.6191 30.4379C24.5334 30.8188 26.2096 31.1998 27.962 31.1998C32.0001 31.1998 34.6667 29.295 34.6667 26.3998C34.6667 24.7998 33.6763 23.5808 31.3906 22.5903C30.0191 21.9046 29.181 21.5236 29.181 20.8379C29.181 20.2284 29.8668 19.6189 31.3906 19.6189C32.6858 19.6189 33.6001 19.8474 34.2858 20.1522L34.6667 20.3046L35.2763 17.3332Z" fill="#293688"/>
<path d="M41.8285 17.1807C40.9143 17.1807 40.2285 17.2569 39.8476 18.1711L34.1333 30.895H38.2476L39.0095 28.6093H43.8857L44.3428 30.895H48L44.8 17.1807H41.8285ZM40.0762 26.3235C40.3047 25.6378 41.6 22.2854 41.6 22.2854C41.6 22.2854 41.9047 21.4473 42.1333 20.914L42.3619 22.2092C42.3619 22.2092 43.1238 25.6378 43.2762 26.3997H40.0762V26.3235Z" fill="#3C58BF"/>
<path d="M42.7428 17.1807C41.8285 17.1807 41.1428 17.2569 40.7619 18.1711L34.1333 30.895H38.2476L39.0095 28.6093H43.8857L44.3428 30.895H48L44.8 17.1807H42.7428ZM40.0762 26.3235C40.3809 25.5616 41.6 22.2854 41.6 22.2854C41.6 22.2854 41.9047 21.4473 42.1333 20.914L42.3619 22.2092C42.3619 22.2092 43.1238 25.6378 43.2762 26.3997H40.0762V26.3235Z" fill="#293688"/>
<path d="M10.5905 26.7809L10.2096 24.7999C9.52384 22.5142 7.31432 19.9999 4.87622 18.7809L8.30479 30.9714H12.4191L18.5905 17.2571H14.4762L10.5905 26.7809Z" fill="#3C58BF"/>
<path d="M10.5905 26.7809L10.2096 24.7999C9.52384 22.5142 7.31432 19.9999 4.87622 18.7809L8.30479 30.9714H12.4191L18.5905 17.2571H15.2381L10.5905 26.7809Z" fill="#293688"/>
<path d="M0 17.1807L0.685714 17.333C5.56191 18.4759 8.91429 21.3711 10.2095 24.7997L8.8381 18.3235C8.60952 17.4092 7.92381 17.1807 7.08572 17.1807H0Z" fill="#FFBC00"/>
<path d="M0 17.1807C4.87619 18.3235 8.91429 21.295 10.2095 24.7235L8.91429 19.314C8.68571 18.3997 7.92381 17.8664 7.08572 17.8664L0 17.1807Z" fill="#F7981D"/>
<path d="M0 17.1807C4.87619 18.3235 8.91429 21.295 10.2095 24.7235L9.29524 21.7521C9.06667 20.8378 8.76191 19.9235 7.69524 19.5426L0 17.1807Z" fill="#ED7C00"/>
<path d="M14.3998 26.3237L11.8093 23.7332L10.5903 26.6284L10.2855 24.7237C9.59977 22.4379 7.39025 19.9236 4.95215 18.7046L8.38072 30.8951H12.495L14.3998 26.3237Z" fill="#051244"/>
<path d="M21.4853 30.8951L18.2091 27.5427L17.5996 30.8951H21.4853Z" fill="#051244"/>
<path d="M30.2472 26.1714C30.552 26.4761 30.7043 26.7047 30.6282 27.0095C30.6282 27.9238 29.4091 28.3809 28.3425 28.3809C26.8186 28.3809 25.9806 28.1523 24.6853 27.619L24.152 27.3904L23.6187 30.5142C24.5329 30.8952 26.2091 31.2761 27.9615 31.2761C30.3996 31.2761 32.3805 30.5904 33.5234 29.3714L30.2472 26.1714Z" fill="#051244"/>
<path d="M34.6665 30.8951H38.2475L39.0094 28.6094H43.8856L44.3427 30.8951H47.9998L46.7046 25.3332L42.1332 20.9142L42.3617 22.1332C42.3617 22.1332 43.1236 25.5618 43.276 26.3237H40.076C40.3808 25.5618 41.5998 22.2856 41.5998 22.2856C41.5998 22.2856 41.9046 21.4475 42.1332 20.9142" fill="#051244"/>
</g>
<defs>
<clipPath id="clip0_170_999">
<rect width="48" height="48" fill="white"/>
</clipPath>
</defs>
</svg>
